 http://img708.imageshack.us/img708/1633/theassistants.jpg

Country.......: USA
Genre.........: Comedy
Date release..: 15.10.2008 [World]
Director......: Steve Morris
Writers.......: Steve Morris
Duration......: 99 min.
More..........: http://www.imdb.com/title/tt1247638
Trailer.......: http://www.imdb.com/video/imdb/vi3829504281
Trailer.......:

Pilot :
This is a story about Hollywood stars assistants. They know all the secrets and weaknesses of their employers. Use this knowledge to make their own career.

Cats :
Chris Conner   	 ...  	Jack Ryder
Michael Grant Terry 	... 	Carl Dresden (as Michael Terry)
Kathleen Early 	... 	Sarah Bryman
Aaron Himelstein 	... 	Ben Goodrich
Tate Hanyok 	... 	Alex Kramer
Peter Douglas 	... 	Bill Riley
Joe Mantegna 	... 	Gary Greene
Jane Seymour 	... 	Sandy Goldman
Reiko Aylesworth 	... 	Cassie Levine
Jonathan Bennett 	... 	Zack Cooper
Joe Hernandez-Kolski 	... 	Jamie Nash
Steve Morris 	... 	Sven
Kevin Koster 	... 	Myron
Mykel Denis 	... 	Bartender
Josh Walsh 	... 	Thin Garbage 

Data Technical :
!!! SAMPLE !!!
Audio.....: English
Subtitles.: None
Format                           : AVI
Format/Info                      : Audio Video Interleave
File size                        : 697 MiB
Duration                         : 1h 39mn
Overall bit rate                 : 982 Kbps
Writing application              : Nandub v1.0rc2
Writing library                  : Nandub build 1852/release
Video
ID                               : 0
Format                           : MPEG-4 Visual
Format profile                   : Advanced Simple@L5
Format settings, BVOP            : No
Format settings, QPel            : No
Format settings, GMC             : No warppoints
Format settings, Matrix          : Default (H.263)
Codec ID                         : XVID
Codec ID/Hint                    : XviD
Duration                         : 1h 39mn
Bit rate                         : 833 Kbps
Width                            : 640 pixels
Height                           : 352 pixels
Display aspect ratio             : 16:9
Frame rate                       : 23.976 fps
Color space                      : YUV
Chroma subsampling               : 4:2:0
Bit depth                        : 8 bits
Scan type                        : Progressive
Bits/(Pixel*Frame)               : 0.154
Stream size                      : 592 MiB (85%)
Writing library                  : XviD 1.2.1 (UTC 2008-12-04)
Audio
ID                               : 1
Format                           : MPEG Audio
Format version                   : Version 1
Format profile                   : Layer 3
Mode                             : Joint stereo
Mode extension                   : MS Stereo
Codec ID                         : 55
Codec ID/Hint                    : MP3
Duration                         : 1h 39mn
Bit rate mode                    : Variable
Bit rate                         : 133 Kbps
Channel(s)                       : 2 channels
Sampling rate                    : 48.0 KHz
Stream size                      : 96.2 MiB (14%)
Alignment                        : Aligned on interleaves
Interleave, duration             : 24 ms (0.58 video frame)
Interleave, preload duration     : 232 ms
Writing library                  : LAME3.90.
Encoding settings                : -m j -V 4 -q 2 -lowpass 17.6 --abr 133

Screen : 
http://img854.imageshack.us/img854/4161/theassistants2009s1.jpg 
http://img191.imageshack.us/img191/3140/theassistants2009s2.jpg 
http://img577.imageshack.us/img577/7289/theassistants2009s3.jpg 
http://img97.imageshack.us/img97/1917/theassistants2009s4.jpg 
http://img844.imageshack.us/img844/8787/theassistants2009s5.jpg